<?xml version="1.0" standalone="no"?>
<!DOCTYPE svg PUBLIC "-//W3C//DTD SVG 20010904//EN"
 "http://www.w3.org/TR/2001/REC-SVG-20010904/DTD/svg10.dtd">
<svg version="1.0" xmlns="http://www.w3.org/2000/svg"
 width="80.000000pt" height="40.000000pt" viewBox="0 0 80.000000 40.000000"
 preserveAspectRatio="xMidYMid meet">
<metadata>
Created by potrace 1.16, written by Peter Selinger 2001-2019
</metadata>
<g transform="translate(0.000000,40.000000) scale(0.038647,-0.037383)"
fill="#000000" stroke="none">
<path d="M80 1014 c0 -3 55 -103 123 -222 462 -811 439 -773 452 -755 22 32
566 953 572 968 4 13 -71 15 -571 15 -317 0 -576 -3 -576 -6z m432 -90 c43
-25 80 -50 83 -54 4 -7 -146 -98 -262 -159 -21 -10 -26 -4 -94 116 -39 71 -74
131 -76 136 -2 4 58 7 133 7 l137 0 79 -46z m266 -33 c2 -39 -1 -71 -6 -71 -5
0 -20 8 -33 19 -13 10 -66 42 -116 70 -51 29 -93 54 -93 55 0 2 55 2 123 1
l122 -2 3 -72z m356 70 c3 -4 -21 -53 -53 -107 -59 -99 -59 -99 -151 -151 -51
-29 -96 -53 -101 -53 -5 0 -9 72 -9 160 l0 160 154 0 c85 0 157 -4 160 -9z
m-664 -378 l0 -148 -20 25 c-11 14 -20 30 -20 36 0 6 -20 42 -45 80 -24 38
-45 75 -45 81 0 11 102 71 123 73 4 0 7 -66 7 -147z m423 -38 c-30 -58 -57
-105 -60 -105 -3 0 -33 17 -66 37 l-60 37 33 28 c29 24 183 107 201 108 3 0
-18 -47 -48 -105z m-91 -144 c9 -8 -146 -277 -158 -275 -4 1 -34 48 -66 104
l-58 102 0 119 0 118 138 -80 c75 -44 140 -84 144 -88z"/>
<path d="M1142 701 c2 -5 41 -82 88 -170 82 -156 86 -161 115 -159 27 3 35 15
112 163 45 88 83 163 83 166 0 4 -17 6 -37 5 -38 -1 -38 -1 -97 -115 -68 -133
-58 -135 -137 22 l-49 97 -41 0 c-22 0 -39 -4 -37 -9z"/>
<path d="M1576 701 c-43 -71 -46 -84 -46 -169 0 -132 32 -162 175 -162 l75 0
-20 40 -20 39 -67 3 -68 3 -3 93 -3 92 40 0 39 0 72 -135 c64 -123 73 -135 98
-135 24 0 33 11 77 93 l50 92 3 -107 3 -108 34 0 35 0 0 180 0 180 -43 0 -43
0 -54 -110 c-30 -60 -57 -110 -61 -110 -3 0 -32 50 -63 110 l-57 110 -47 2
c-26 0 -60 2 -75 3 -15 1 -29 -1 -31 -4z"/>
</g>
</svg>
